<svg id="Layer_1" data-name="Layer 1" xmlns="http://www.w3.org/2000/svg" viewBox="0 0 100.08824 99.82353"><path id="Path_11818" data-name="Path 11818" d="M92.054,51.06874a24.86492,24.86492,0,0,1-1.14344,2.30233,6.24253,6.24253,0,0,1-4.64623,2.57514c-.46249.03943-.92977.0325-1.3944.0325H26.97172a17.83221,17.83221,0,0,1,4.06385,2.6865c.535.50832,1.06938,1.01929,1.591,1.54093q7.56237,7.58394,15.12208,15.17a6.32923,6.32923,0,0,1,1.85529,6.639A5.86194,5.86194,0,0,1,40.547,84.76079a9.85788,9.85788,0,0,1-1.04753-.91858Q24.81432,69.165,10.13449,54.482a6.03209,6.03209,0,0,1-1.29-7.60606,7.20815,7.20815,0,0,1,1.27665-1.59314Q24.8287,30.57127,39.54264,15.86347a5.98882,5.98882,0,0,1,9.04841.17264,6.16153,6.16153,0,0,1-.05008,7.63856c-.31224.3799-.65484.73316-1.00384,1.09122q-7.77177,7.77816-15.54567,15.55846a14.95567,14.95567,0,0,1-4.63557,3.311c-.11349.05008-.27281.05221-.31224.31649H85.35a6.49993,6.49993,0,0,1,5.37513,2.26078,10.4367,10.4367,0,0,1,1.33365,2.73019Z" fill="#818181"/></svg>