<svg id="Layer_1" data-name="Layer 1" xmlns="http://www.w3.org/2000/svg" viewBox="0 0 50 50"><path d="M2.58265,42.85146V19.18362c.13545-.051.08421-.17442.09734-.26727a12.58839,12.58839,0,0,1,9.806-10.66177,12.07577,12.07577,0,0,0,1.7131-.32435h.53614c.08607.16164.23717.08767.35817.08773q10.36467.00516,20.72934.00026c.121-.00006.27213.07361.35812-.088h.35743a1.9001,1.9001,0,0,0,.88443.15087,12.58831,12.58831,0,0,1,10.57761,9.57274,9.06217,9.06217,0,0,0,.33305,1.52978v6.60913c-.12233.0305-.08921.13669-.10147.21674a13.60713,13.60713,0,0,1-.491,2.17012,12.57353,12.57353,0,0,1-12.158,8.75987q-9.87267.00963-19.74536-.00131a1.75569,1.75569,0,0,0-.77061.16468Q9.23667,39.81977,3.39771,42.5179A2.78946,2.78946,0,0,1,2.58265,42.85146ZM5.3801,38.49607c.1985-.08429.34678-.14234.491-.20921q4.26046-1.97574,8.51749-3.95888a2.13948,2.13948,0,0,1,.94185-.2037q10.02843.00774,20.05688.00289a14.19309,14.19309,0,0,0,1.87-.10741,9.78673,9.78673,0,0,0,8.22559-8.73411,44.89271,44.89271,0,0,0,.03473-5.08692,9.68414,9.68414,0,0,0-9.63592-9.41231c-6.96838-.03217-13.93745-.05266-20.90536.01348a9.37164,9.37164,0,0,0-8.29117,4.8759A8.93848,8.93848,0,0,0,5.387,20.34505C5.36952,26.3723,5.3801,32.39964,5.3801,38.49607Z" fill="#030204"/><path d="M36.18081,7.93023c-.086.1616-.23714.08793-.35812.088Q25.458,8.02314,15.09335,8.018c-.121-.00006-.2721.07391-.35817-.08773Z" fill="#030204"/><path d="M16.05591,20.32a2.6522,2.6522,0,1,1-2.65747,2.66857A2.65749,2.65749,0,0,1,16.05591,20.32Z" fill="#030204"/><path d="M34.85016,25.62406a2.652,2.652,0,1,1,2.66641-2.66153A2.66185,2.66185,0,0,1,34.85016,25.62406Z" fill="#030204"/><path d="M25.45252,20.32017a2.65212,2.65212,0,1,1-2.66395,2.66565A2.662,2.662,0,0,1,25.45252,20.32017Z" fill="#030204"/></svg>