<svg id="Layer_1" data-name="Layer 1" xmlns="http://www.w3.org/2000/svg" viewBox="0 0 50 50"><path d="M2.58265,42.85146V19.18362c.13545-.051.08421-.17442.09734-.26727a12.58839,12.58839,0,0,1,9.806-10.66177,12.07577,12.07577,0,0,0,1.7131-.32435h.53614c.08607.16164.23717.08767.35817.08773q10.36467.00516,20.72934.00026c.121-.00006.27213.07361.35812-.088h.35743a1.9001,1.9001,0,0,0,.88443.15087,12.58831,12.58831,0,0,1,10.57761,9.57274,9.06217,9.06217,0,0,0,.33305,1.52978v6.60913c-.12233.0305-.08921.13669-.10147.21674a13.60713,13.60713,0,0,1-.491,2.17012,12.57353,12.57353,0,0,1-12.158,8.75987q-9.87267.00963-19.74536-.00131a1.75569,1.75569,0,0,0-.77061.16468Q9.23667,39.81977,3.39771,42.5179A2.78946,2.78946,0,0,1,2.58265,42.85146ZM5.3801,38.49607c.1985-.08429.34678-.14234.491-.20921q4.26046-1.97574,8.51749-3.95888a2.13948,2.13948,0,0,1,.94185-.2037q10.02843.00774,20.05688.00289a14.19309,14.19309,0,0,0,1.87-.10741,9.78673,9.78673,0,0,0,8.22559-8.73411,44.89271,44.89271,0,0,0,.03473-5.08692,9.68414,9.68414,0,0,0-9.63592-9.41231c-6.96838-.03217-13.93745-.05266-20.90536.01348a9.37164,9.37164,0,0,0-8.29117,4.8759A8.93848,8.93848,0,0,0,5.387,20.34505C5.36952,26.3723,5.3801,32.39964,5.3801,38.49607Z" fill="#030204"/><path d="M36.18081,7.93023c-.086.1616-.23714.08793-.35812.088Q25.458,8.02314,15.09335,8.018c-.121-.00006-.2721.07391-.35817-.08773Z" fill="#030204"/><path d="M16.05591,20.32a2.6522,2.6522,0,1,1-2.65747,2.66857A2.65749,2.65749,0,0,1,16.05591,20.32Z" fill="#030204"/><path d="M34.85016,25.62406a2.652,2.652,0,1,1,2.66641-2.66153A2.66185,2.66185,0,0,1,34.85016,25.62406Z" fill="#030204"/><path d="M25.45252,20.32017a2.65212,2.65212,0,1,1-2.66395,2.66565A2.662,2.662,0,0,1,25.45252,20.32017Z" fill="#030204"/><path d="M49.08333,30.97071v1.42807c-.04823.01263-.03221.05368-.03681.0849-.04812.32661-.08088.65629-.14583.9795a8.94263,8.94263,0,0,1-7.69276,7.05971.82275.82275,0,0,0-.3795.06116H39.4352c-.01263-.04823-.05361-.03337-.08491-.03664a9.94215,9.94215,0,0,1-1.09809-.17247,8.93734,8.93734,0,0,1-6.90785-7.42543,2.02953,2.02953,0,0,0-.09438-.55073v-1.4629c.04823-.01264.03336-.05362.03664-.08491a9.94193,9.94193,0,0,1,.17246-1.0981,8.93734,8.93734,0,0,1,7.4254-6.90788,2.02954,2.02954,0,0,0,.55073-.09439h1.39323c.00863.03913.04026.03234.06785.03435a7.77051,7.77051,0,0,1,2.38136.53025,8.83419,8.83419,0,0,1,5.7133,7.08695A2.51025,2.51025,0,0,0,49.08333,30.97071Zm-13.25549-.2499a.84976.84976,0,0,0-.89494.7387.92453.92453,0,0,0,.33762.849q1.43679,1.305,2.87023,2.61362a.89785.89785,0,0,0,1.39107-.02642q2.74948-2.72864,5.49847-5.45778c.0576-.05719.11561-.1145.16781-.17649a.889.889,0,0,0-.2433-1.35885.89842.89842,0,0,0-1.14736.21317q-2.45662,2.45527-4.90965,4.91415c-.09769.09811-.14706.08992-.24223.00173-.72781-.67441-1.46168-1.34227-2.19226-2.0137A.9216.9216,0,0,0,35.82784,30.72081Z" fill="#05721c"/><path d="M35.82784,30.72081a.9216.9216,0,0,1,.63546.29716c.73058.67143,1.46445,1.33929,2.19226,2.0137.09517.08819.14454.09638.24223-.00173q2.45068-2.4612,4.90965-4.91415a.89842.89842,0,0,1,1.14736-.21317.889.889,0,0,1,.2433,1.35885c-.0522.062-.11021.1193-.16781.17649q-2.74894,2.72918-5.49847,5.45778a.89785.89785,0,0,1-1.39107.02642q-1.43437-1.30762-2.87023-2.61362a.92453.92453,0,0,1-.33762-.849A.84976.84976,0,0,1,35.82784,30.72081Z" fill="#fdfdfd"/></svg>