<svg id="Layer_1" data-name="Layer 1" xmlns="http://www.w3.org/2000/svg" viewBox="0 0 50 50"><path d="M26.59983,2.07872a18.05333,18.05333,0,0,1,3.95685.88112C36.9888,5.4029,40.8619,9.98971,42.01393,16.79609A18.48255,18.48255,0,0,1,40.5086,26.9604a48.00767,48.00767,0,0,1-5.74437,10.019,83.1223,83.1223,0,0,1-8.991,10.466c-.64147.63379-.926.63564-1.56607-.0017A77.51722,77.51722,0,0,1,12.28564,32.541a32.77416,32.77416,0,0,1-4.07391-9.53567,17.19976,17.19976,0,0,1,14.95352-20.871A1.45968,1.45968,0,0,0,23.38,2.07872Zm-9.4447,17.09733a7.7978,7.7978,0,0,0,7.85045,7.89026A7.71029,7.71029,0,0,0,32.803,19.37108a7.82453,7.82453,0,1,0-15.64783-.195Z" fill="#fc4903"/></svg>