<svg id="Layer_1" data-name="Layer 1" xmlns="http://www.w3.org/2000/svg" viewBox="0 0 50 50"><path d="M44.264,15.25828a9.76976,9.76976,0,0,1-2.90256,6.942q-6.569,6.57135-13.14025,13.14053c-2.0151,2.015-4.05379,4.00733-6.03241,6.05757A3.85552,3.85552,0,0,1,19.79841,42.572c-3.79486.52015-7.58517,1.07341-11.37821,1.60695a2.95884,2.95884,0,0,1-1.20227.01392,2.0078,2.0078,0,0,1-1.4632-2.18663c.5582-3.91072,1.12614-7.82019,1.65357-11.73509a4.0925,4.0925,0,0,1,1.21827-2.509q9.579-9.5109,19.10154-19.07867a9.615,9.615,0,0,1,16.00382,3.56709A11.212,11.212,0,0,1,44.264,15.25828Zm-33.86183,24.648c.04463-.00514.08941-.00922.13388-.01557,2.71043-.38693,5.4214-.77011,8.13048-1.16627a1.46873,1.46873,0,0,0,.93657-.357q6.8571-6.88585,13.74016-13.74581c.22791-.22739.26155-.3707.01394-.61662q-3.7028-3.67761-7.38207-7.37887c-.21934-.22044-.35917-.23026-.58322-.00569q-6.89538,6.91122-13.80351,13.80973a.89406.89406,0,0,0-.26486.54744c-.18662,1.36422-.39235,2.72583-.59026,4.08851q-.32267,2.22159-.64256,4.44357C10.05632,39.74835,10.08294,39.94277,10.40218,39.90629ZM40.26766,15.35974a4.691,4.691,0,0,0-.14048-1.3388,5.66152,5.66152,0,0,0-9.16542-2.91968c-.78779.666-1.47307,1.45228-2.22007,2.168-.23936.22936-.18749.375.0228.58439q3.69847,3.68236,7.38031,7.3814c.22314.2243.36836.22363.58511-.00055.64624-.66838,1.31646-1.31352,1.96574-1.979A5.40206,5.40206,0,0,0,40.26766,15.35974Z" fill="#6b6b6b"/></svg>