<svg id="Layer_1" data-name="Layer 1" xmlns="http://www.w3.org/2000/svg" viewBox="0 0 100.08824 99.82353"><g id="Group_1025" data-name="Group 1025"><path id="Path_11862" data-name="Path 11862" d="M1.91376,43.14936a3.87187,3.87187,0,0,1,4.07985-2.26913c8.14191.06129,16.28588.02365,24.42779.02751a3.06786,3.06786,0,0,1,3.29511,2.22377,2.96617,2.96617,0,0,1-2.47284,3.78927,10.091,10.091,0,0,1-1.21962.04923c-7.95412,0-15.9103-.03765-23.86443.03185a4.07229,4.07229,0,0,1-4.24786-2.16248Z" fill="#818181"/><path id="Path_11863" data-name="Path 11863" d="M38.85987,16.56523H63.28965c2.77723,0,3.83078,1.06748,3.83078,3.87421,0,2.19819,0,2.19819,2.23957,2.19819,3.32081,0,6.64161.0555,9.96049-.02172a3.71612,3.71612,0,0,1,3.78336,2.32077c2.48074,5.04255,5.04449,10.04554,7.543,15.078a23.69779,23.69779,0,0,0,2.84051,4.505c1.267,1.55152,2.459,3.16288,3.70229,4.73419a4.27738,4.27738,0,0,1,.96265,2.76715c-.01581,6.264,0,12.528,0,18.79244a3.11489,3.11489,0,0,1-3.4829,3.47511c-2.53606.014-5.0741.02172-7.61022-.00965a.8611.8611,0,0,0-.97453.71568,12.08989,12.08989,0,0,1-22.92942.01979.919.919,0,0,0-1.05554-.73547q-8.221.03765-16.444,0a.92318.92318,0,0,0-1.03184.7649,12.096,12.096,0,0,1-22.9077.01593A.96247.96247,0,0,0,20.6,74.28028l-.00259.00048q-3.42758.05646-6.85908,0a2.96533,2.96533,0,0,1-2.965-1.90139,2.90359,2.90359,0,0,1,.53567-3.15275,3.239,3.239,0,0,1,2.61912-1.0337c2.19216,0,4.38624-.02365,6.5764.014a.98812.98812,0,0,0,1.16087-.77842l.00736-.042a12.0296,12.0296,0,0,1,11.19591-8.36324A12.15054,12.15054,0,0,1,44.2029,66.12166c.07908.16987.1502.34408.2174.51781.593,1.55345.593,1.55345,2.23167,1.55345q7.65866,0,15.31527.00965c.593,0,.89936-.08686,1.11882-.7649a12.08792,12.08792,0,0,1,23.054.03137.88185.88185,0,0,0,1,.74463c.01394-.00193.02787-.00434.04168-.00724,1.40741-.04922,2.81874-.03378,4.22813,0,.49616,0,.71755-.083.71357-.65825q-.03366-7.23446,0-14.46942A1.67442,1.67442,0,0,0,91.653,51.9997c-1.11285-1.43329-2.25344-2.8463-3.32871-4.30709a1.779,1.779,0,0,0-1.6189-.81027c-7.29787.03185-14.5958.01979-21.89367.01786-2.625,0-3.728-1.0892-3.73-3.68649v-19.263c0-1.30878,0-1.30878-1.354-1.30878H14.34322a5.91292,5.91292,0,0,1-1.4924-.11485,2.97671,2.97671,0,0,1-2.28107-3.21983,2.92146,2.92146,0,0,1,2.66653-2.69235,11.82422,11.82422,0,0,1,1.21962-.04537Q26.644,16.56306,38.85987,16.56523ZM84.278,40.82876c-2.02609-4.03443-3.987-7.93036-5.93-11.83449-.19768-.37931-.49218-.3103-.79066-.3103-3.25559,0-6.51119.00965-9.76678-.014-.52977,0-.678.14044-.67605.67225q.03366,5.40015,0,10.80079c0,.514.11468.69975.66814.69782,5.43979-.01786,10.88555-.01014,16.48947-.01014ZM39.192,71.11354a6.03108,6.03108,0,0,0-6.05557-6.00628l-.07215.001a6.038,6.038,0,1,0,.13784,12.07531h.01635a6.05057,6.05057,0,0,0,5.97154-6.07Zm35.38253,6.07433a6.04084,6.04084,0,1,0-6.04863-6.01111A6.09594,6.09594,0,0,0,74.57448,77.18787Z" fill="#818181"/><path id="Path_11864" data-name="Path 11864" d="M22.76574,29.01207c4.28544,0,8.57287-.014,12.8583,0A2.965,2.965,0,0,1,38.78089,31.772c.0029.04344.00483.08639.00585.12982a3.00049,3.00049,0,0,1-2.82464,3.13682c-.55938.0415-1.12473.01785-1.68809.01785q-12.01426.00073-24.02852,0A3.04419,3.04419,0,0,1,6.98,31.301a2.965,2.965,0,0,1,3.1212-2.29277C14.31738,29.00241,18.54159,29.01207,22.76574,29.01207Z" fill="#818181"/><path id="Path_11865" data-name="Path 11865" d="M16.8535,52.88241c2.372,0,4.7559-.06129,7.12987.01786a2.965,2.965,0,0,1,2.72191,3.977,2.99839,2.99839,0,0,1-2.86621,2.038q-6.944.04125-13.88615,0a3.044,3.044,0,0,1-3.08934-2.99832l-.00019-.01206A2.98913,2.98913,0,0,1,9.81574,52.88c.03119,0,.06244,0,.09369.00048,2.31274-.04922,4.6294-.01206,6.94407-.01206Z" fill="#818181"/></g></svg>