<?xml version="1.0" encoding="utf-8"?>
<!-- Generator: Adobe Illustrator 25.2.0, SVG Export Plug-In . SVG Version: 6.00 Build 0)  -->
<svg version="1.1" baseProfile="tiny" id="Layer_1" xmlns="http://www.w3.org/2000/svg" xmlns:xlink="http://www.w3.org/1999/xlink"
	 x="0px" y="0px" viewBox="0 0 100 100" overflow="visible" xml:space="preserve">
<g>
	<path fill="none" stroke="#FFC010" stroke-width="7" stroke-linecap="round" stroke-linejoin="round" stroke-miterlimit="10" d="
		M88.3,52.5c0,21.1-17.1,38.3-38.3,38.3h0c-21.1,0-38.3-17.1-38.3-38.3"/>
	<g>
		<g>
			<path fill="#FFC010" d="M72.1,30.3L52.7,11c-1.5-1.5-4-1.5-5.5,0L27.9,30.3c-1.5,1.5-1.4,4,0.1,5.5c1.5,1.4,3.9,1.4,5.4,0
				l12.7-12.7v41.2c0,2.1,1.7,3.9,3.9,3.9s3.9-1.7,3.9-3.9V23.1l12.7,12.7c1.5,1.5,4,1.4,5.5-0.1C73.5,34.2,73.5,31.8,72.1,30.3z"/>
		</g>
	</g>
</g>
</svg>
